# xmcd
#
# Track frame offsets:
#	225
#	13255
#	27645
#	39729
#	50587
#	63453
#	75522
#	90508
#	99523
#	110502
#	123671
#	137513
#	148112
#	162289
#
# Disc length: 2344 seconds
#
# Revision: 0
# Processed by: cddbd v1.5.2PL0 Copyright (c) Steve Scherf et al.
# Submitted via: audiograbber 1.83.01
#
DISCID=c309250e
DTITLE=Various Artist - Bullige Volksmusik CD2
DYEAR=1900
DGENRE=
TTITLE0=Ursprung Buam - Zillertaler Bravourjodler
TTITLE1=Takeo Ischi - New Bibi-Hendl (Rap)
TTITLE2=Orig. Mülltaler Vagabunden - Unser Berhardiner
TTITLE3=Orig. Trio Alpin - I fax Dir heut`a Busserl
TTITLE4=Die Pucher - Wenn heut`am Dorfplatz die Musi kracht
TTITLE5=Willi Keuschingg/Joker - Der alte Bauernschmied
TTITLE6=Die Hüttenflizzer - Der Kuahdreck
TTITLE7=Hans Zuber and sein Quintett - Freu Dich auf die Musi
TTITLE8=Klosterjäger - Sing ma miteinand
TTITLE9=Die Kreuzbichler - Zwickabusserl
TTITLE10=D` Laudl`s - De darfst net so eng seh`n
TTITLE11=Reit im Winkler Musikanten - Wir lass`n d` Hosen runter
TTITLE12=Alois Keuschnigg`s 4 Tiroler Buam - A Busserl in Ehren
TTITLE13=Orig. Tiroler Echo - `s Hiaferl am Kopf
EXTD=
EXTT0=
EXTT1=
EXTT2=
EXTT3=
EXTT4=
EXTT5=
EXTT6=
EXTT7=
EXTT8=
EXTT9=
EXTT10=
EXTT11=
EXTT12=
EXTT13=
PLAYORDER=
